<svg width="50" height="48" viewBox="0 0 50 48" fill="none" xmlns="http://www.w3.org/2000/svg">
<path d="M48.9147 21.7583C49.8989 20.7991 50.2463 19.3915 49.8218 18.0829C49.3963 16.7743 48.2879 15.8402 46.9263 15.642L34.8198 13.8828C34.3041 13.8078 33.8586 13.4844 33.6283 13.0168L28.2158 2.04665C27.6081 0.814167 26.3746 0.0482483 25 0.0482483C23.6263 0.0482483 22.3928 0.814167 21.7851 2.04665L16.3716 13.0168C16.1413 13.4844 15.6948 13.8078 15.1792 13.8828L3.07266 15.643C1.71203 15.8402 0.6037 16.7743 0.178189 18.0829C-0.24632 19.3915 0.101097 20.7991 1.08528 21.7583L9.84479 30.2965C10.2182 30.661 10.3894 31.1856 10.3013 31.6982L8.23386 43.7557C8.00158 45.1103 8.54723 46.4529 9.65957 47.2619C10.7709 48.0719 12.2176 48.177 13.4361 47.5352L24.2631 41.8424C24.7246 41.6001 25.2753 41.6001 25.7369 41.8424L36.5649 47.5352C37.0935 47.8136 37.6662 47.9507 38.2359 47.9507C38.9757 47.9507 39.7126 47.7194 40.3414 47.2619C41.4537 46.4529 41.9994 45.1103 41.7671 43.7557L39.6986 31.6992C39.6105 31.1856 39.7817 30.662 40.1552 30.2975L48.9147 21.7583ZM37.7262 32.0376L39.7937 44.0941C39.8979 44.7008 39.6626 45.2805 39.164 45.643C38.6644 46.0044 38.0426 46.0484 37.497 45.7641L26.669 40.0703C26.1474 39.7969 25.5727 39.6588 25 39.6588C24.4273 39.6588 23.8536 39.7969 23.331 40.0713L12.505 45.7641C11.9573 46.0484 11.3356 46.0044 10.837 45.643C10.3384 45.2805 10.1041 44.7018 10.2072 44.0941L12.2747 32.0376C12.4739 30.8742 12.0885 29.6868 11.2435 28.8638L2.48296 20.3246C2.04143 19.8941 1.89125 19.2873 2.08247 18.7016C2.2727 18.1149 2.75028 17.7124 3.36001 17.6233L15.4655 15.8642C16.6339 15.695 17.6441 14.9621 18.1658 13.9029L23.5793 2.93271C23.8516 2.38005 24.3832 2.05065 24.999 2.05065C25.6157 2.05065 26.1464 2.38005 26.4197 2.93271L31.8332 13.9029C32.3548 14.9621 33.364 15.695 34.5324 15.8642L46.6389 17.6233C47.2487 17.7124 47.7263 18.1149 47.9165 18.7016C48.1067 19.2873 47.9575 19.8941 47.516 20.3246L38.7565 28.8628C37.9115 29.6868 37.526 30.8732 37.7262 32.0376Z" fill="black"/>
</svg>
